# xmcd
#
# Track frame offsets:
#	150
#	19060
#	31220
#	44987
#	64792
#	80480
#	93447
#	113375
#	127767
#	149282
#	166987
#	181670
#	197372
#	212745
#	233775
#
# Disc length: 3397 seconds
#
# Revision: 1
# Processed by: cddbd v1.5.1PL2 Copyright (c) Steve Scherf et al.
# Submitted via: audiograbber 1.83.01
#
DISCID=be0d430f
DTITLE=Music Maestro Top Country Hits 90's Vol 42 - Mm6168
DYEAR=1900
DGENRE=Karaoke
TTITLE0=Shania Twain - Home Ain't Where His Heart Is
TTITLE1=Gary Allan - Her Man
TTITLE2=Trace Adkins - Every Light In The House Is On
TTITLE3=George Strait - I Can Still Make Cheyenne
TTITLE4=Diamond Rio - It's All In Your Head
TTITLE5=James House And Beach Boys - Little Deuce Coupe
TTITLE6=Patty Loveless - Lonely Too Long
TTITLE7=Ricochet - Love Is Stronger Than Pride
TTITLE8=Deana Carter - Strawberry Wine
TTITLE9=Sawyer Brown - She's Gettin' There
TTITLE10=Marty Stuart - Thanks To You
TTITLE11=Chris Ward - Fall Reaching
TTITLE12=Billy Ray Cyrus - Trail Of Tears
TTITLE13=Western Flyer - What Will You Do With M E
TTITLE14=Wynonna Judd - My Angel Is Here
EXTD=
EXTT0=
EXTT1=
EXTT2=
EXTT3=
EXTT4=
EXTT5=
EXTT6=
EXTT7=
EXTT8=
EXTT9=
EXTT10=
EXTT11=
EXTT12=
EXTT13=
EXTT14=
PLAYORDER=
